HIERARCHY
ROOT wineglass3
{
	OFFSET 0.000000 0.000000 0.000000
	CHANNELS 6 Xposition Yposition Zposition Yrotation Xrotation Zrotation
	End Site
	{
		OFFSET 0.000000 0.000000 0.000000
	}
}
MOTION
Frames: 205
Frame Time: 0.008333334
2.816495 4.757494 4.162450 -117.205700 3.640851 5.543329 
2.827843 4.758223 4.163538 -117.312700 2.823996 5.986715 
2.840906 4.757412 4.165805 -117.677700 1.995590 6.482711 
2.856115 4.757199 4.168791 -118.114000 1.026153 6.868870 
2.871072 4.756351 4.174606 -118.729600 0.002450 7.383920 
2.886950 4.755455 4.180732 -119.511300 -0.991486 7.613760 
2.902127 4.754354 4.189211 -120.369800 -2.153503 7.809669 
2.916984 4.753728 4.197083 -121.034200 -3.064789 7.927047 
2.929514 4.753159 4.205253 -121.765300 -4.014160 8.034383 
2.939622 4.753689 4.212305 -122.332400 -4.488892 8.293665 
2.949047 4.754455 4.216374 -122.756400 -4.811554 8.361786 
2.958008 4.753985 4.217323 -122.877200 -5.044525 8.630284 
2.965548 4.752621 4.216053 -122.901300 -5.045349 8.819688 
2.971744 4.750152 4.213878 -123.071200 -4.911926 9.112125 
2.977397 4.746192 4.210907 -122.931200 -5.010895 9.435659 
2.981827 4.742102 4.209709 -123.084500 -4.713959 9.506435 
2.986092 4.737762 4.205899 -123.106700 -4.641815 9.452652 
2.989267 4.732627 4.202374 -123.269900 -4.455688 9.715570 
2.992529 4.726765 4.197063 -123.154300 -4.239929 9.294945 
2.994149 4.720863 4.192809 -123.310000 -3.852997 9.750482 
2.996511 4.715615 4.188283 -123.456200 -3.348389 9.360690 
2.998631 4.708575 4.180629 -123.513900 -2.939117 9.252257 
3.000966 4.703250 4.175015 -123.657600 -2.369873 9.454083 
3.002964 4.697085 4.168553 -124.010900 -1.754150 9.630840 
3.007157 4.690258 4.160496 -124.395900 -1.376801 10.109420 
3.012304 4.683678 4.153695 -125.091000 -1.191956 10.681420 
3.018097 4.678188 4.146160 -125.692500 -0.966095 10.843820 
3.024664 4.673346 4.141159 -126.041900 -1.051605 11.260660 
3.030826 4.669413 4.138832 -126.505300 -1.140472 11.467460 
3.035906 4.666666 4.137360 -126.966900 -0.983398 11.471220 
3.040768 4.664158 4.135918 -127.624000 -1.023193 11.294800 
3.045203 4.662552 4.135828 -128.259200 -1.064209 11.291310 
3.049160 4.661272 4.135653 -129.062400 -1.008850 10.971000 
3.053246 4.659984 4.136055 -129.824700 -0.817963 10.568650 
3.057413 4.659015 4.135757 -130.450700 -0.641663 10.282720 
3.060924 4.657706 4.134925 -131.142700 -0.471344 10.083770 
3.064103 4.656231 4.134918 -131.897700 -0.283051 9.827912 
3.066455 4.654521 4.133032 -132.659500 -0.155212 9.526662 
3.068706 4.652720 4.131071 -133.375600 0.089383 9.364421 
3.071105 4.650414 4.128179 -134.034100 0.346534 9.156818 
3.076005 4.648211 4.124568 -134.600300 0.531465 9.153857 
3.081730 4.645243 4.120600 -135.243000 0.598369 9.237156 
3.087881 4.643226 4.117332 -135.830600 0.522727 9.651790 
3.096033 4.640656 4.115228 -136.225800 0.291102 9.985420 
3.104048 4.638911 4.113390 -136.768700 0.243279 9.829792 
3.110095 4.635512 4.113000 -137.345600 -0.258362 10.075190 
3.116227 4.633232 4.111233 -137.895300 -0.272278 9.756108 
3.120420 4.629676 4.109514 -138.357800 -0.341766 9.334936 
3.124574 4.624291 4.107405 -138.909700 -0.328064 8.982034 
3.126980 4.618684 4.103984 -139.578800 -0.172913 8.969305 
3.128728 4.612146 4.100080 -140.132700 -0.004649 8.710735 
3.130633 4.605122 4.094579 -140.702800 -0.031525 8.785200 
3.132334 4.597364 4.089963 -141.261100 0.080285 8.750110 
3.134452 4.589611 4.084282 -141.930000 0.066953 8.917747 
3.136273 4.582057 4.078034 -142.596500 -0.104492 9.280346 
3.139197 4.573840 4.071670 -143.536800 -0.210571 9.606569 
3.141770 4.565547 4.063546 -144.344500 -0.289063 10.075950 
3.144167 4.555431 4.058029 -145.077100 -0.511108 10.338200 
3.143786 4.542165 4.054111 -145.647600 -0.831329 10.266070 
3.140164 4.528259 4.050855 -146.156400 -1.069672 10.279150 
3.134409 4.512167 4.047801 -146.650000 -1.133789 9.771915 
3.126192 4.493059 4.043572 -147.256600 -1.408539 9.202744 
3.118801 4.476111 4.040676 -147.881700 -1.211243 8.615049 
3.109567 4.456630 4.036818 -148.613700 -1.297546 8.303626 
3.099464 4.438479 4.031409 -149.470100 -1.026306 7.784393 
3.089690 4.421239 4.026235 -150.306900 -0.751648 7.216169 
3.076837 4.407322 4.017977 -151.308200 -0.147217 6.855786 
3.065225 4.394216 4.009427 -152.419900 0.440144 6.649518 
3.054933 4.382981 4.002278 -153.279400 1.022843 6.642988 
3.046344 4.371175 3.996780 -154.035300 1.385116 6.634319 
3.039769 4.357352 3.995817 -154.487400 1.328500 6.806462 
3.033831 4.343090 3.996437 -155.017500 1.285063 6.762438 
3.028304 4.327326 3.996767 -155.311900 1.032884 6.788094 
3.023665 4.313029 3.998122 -155.628800 0.715512 6.724233 
3.018342 4.299214 3.998837 -156.129600 0.412930 6.937054 
3.015902 4.285885 3.999770 -156.534800 0.195101 7.085019 
3.013507 4.273688 3.999854 -157.137100 0.031665 7.394960 
3.010826 4.262290 3.999600 -157.745400 -0.119446 7.361529 
3.008570 4.251893 4.000224 -158.518700 -0.258606 7.719239 
3.007710 4.242423 4.000583 -159.421000 -0.207977 7.758566 
3.005998 4.232625 4.003715 -160.238200 -0.489075 8.274659 
3.003621 4.222367 4.006621 -161.079800 -0.647278 8.154363 
2.999712 4.211945 4.011181 -161.826200 -0.971954 8.221693 
2.992948 4.201469 4.015032 -162.415200 -1.055939 7.964938 
2.985600 4.191420 4.017444 -162.884700 -1.078949 7.565633 
2.977396 4.180015 4.019631 -163.230000 -1.044373 7.156069 
2.967978 4.167706 4.020284 -163.542900 -1.057190 6.899199 
2.959296 4.156136 4.020827 -163.799400 -0.757294 6.418841 
2.950753 4.145234 4.020117 -164.110600 -0.331421 5.997198 
2.941677 4.132555 4.019759 -164.595900 -0.191986 5.662686 
2.934410 4.121074 4.019699 -164.991500 0.082818 5.619807 
2.927919 4.109378 4.019809 -165.583400 0.321243 5.205540 
2.922345 4.097302 4.019831 -166.045300 0.404728 4.930733 
2.917222 4.085610 4.021172 -166.728400 0.600256 4.767079 
2.912174 4.072866 4.022067 -167.112000 0.602478 4.736898 
2.907697 4.059211 4.024497 -167.575200 0.454717 4.619526 
2.902469 4.045140 4.027045 -167.858700 0.231331 4.607043 
2.897346 4.030629 4.029452 -168.239700 0.253418 4.393585 
2.892283 4.015296 4.030829 -168.610700 -0.073700 3.982017 
2.886863 4.001610 4.032713 -168.797800 -0.051209 3.582923 
2.880374 3.988533 4.035805 -169.224100 -0.054810 3.417722 
2.872900 3.972638 4.037390 -169.377300 -0.358643 3.314587 
2.865363 3.959363 4.039751 -169.529300 -0.154755 2.976878 
2.859546 3.946413 4.040568 -169.749400 0.262855 2.646713 
2.854050 3.932462 4.041354 -169.970500 0.418585 2.320890 
2.847119 3.919311 4.041523 -170.348400 0.478859 2.630012 
2.843915 3.906149 4.042342 -170.590800 0.543549 2.567603 
2.839651 3.893996 4.044827 -170.919900 0.668386 2.597034 
2.835253 3.881316 4.048103 -171.169500 0.521765 2.725243 
2.830636 3.867220 4.050485 -171.284900 0.320798 2.528444 
2.825177 3.853270 4.053012 -171.466400 0.345303 2.028914 
2.818959 3.839342 4.055381 -171.496600 0.310163 2.130869 
2.812545 3.824800 4.055321 -171.441100 0.364041 1.716045 
2.805239 3.811754 4.055361 -171.383000 0.622703 1.801076 
2.799078 3.797673 4.053955 -171.192000 0.705873 1.849299 
2.793674 3.785704 4.055083 -171.211100 0.863536 1.997082 
2.790199 3.779425 4.054316 -171.103100 0.970899 1.837194 
2.788240 3.779303 4.057377 -171.114000 0.840715 1.902418 
2.789688 3.779497 4.061579 -171.120600 0.653978 2.126706 
2.793031 3.778414 4.063254 -171.162100 0.397432 2.492172 
2.795761 3.778702 4.063487 -171.197400 0.202370 3.415967 
2.799047 3.777839 4.064407 -171.205900 0.090813 3.421010 
2.801512 3.778188 4.065265 -171.188700 0.052255 3.680660 
2.803822 3.778639 4.064848 -171.253600 0.046457 4.097103 
2.805146 3.778379 4.064301 -171.195800 0.014273 4.229951 
2.805782 3.778588 4.062932 -171.002400 0.002432 4.405115 
2.805387 3.778604 4.061612 -170.708400 0.089890 4.585753 
2.804330 3.778046 4.059426 -170.485800 0.025923 4.614013 
2.803361 3.778857 4.059154 -170.162100 0.284923 4.383414 
2.800923 3.778355 4.056812 -169.941600 0.210122 4.637756 
2.798953 3.778171 4.055062 -169.753800 0.349598 4.531171 
2.796581 3.779281 4.052896 -169.499400 0.638195 4.117639 
2.793407 3.779087 4.047832 -169.278100 0.691520 4.350895 
2.791209 3.777955 4.046533 -169.028000 0.597998 4.436957 
2.788897 3.778958 4.045783 -168.671200 0.906898 4.214593 
2.787098 3.779128 4.044802 -168.337800 0.921016 4.240974 
2.785650 3.779023 4.044166 -168.116900 1.026042 4.286153 
2.784379 3.779388 4.045229 -167.685000 1.144161 4.335233 
2.783416 3.778956 4.042407 -166.987200 1.172063 4.905065 
2.781801 3.778567 4.040280 -166.608500 1.139927 4.869056 
2.780116 3.778430 4.038114 -166.141300 1.203656 4.887990 
2.778350 3.778028 4.036003 -165.723200 1.349477 4.920326 
2.777768 3.777808 4.033959 -165.209600 1.389862 5.019837 
2.776592 3.777079 4.030550 -164.628400 1.437153 5.124755 
2.776265 3.776987 4.027804 -164.215000 1.655949 5.179765 
2.775686 3.776505 4.022254 -163.459100 1.756603 5.131682 
2.774408 3.775971 4.018102 -162.744400 2.038649 5.071926 
2.772471 3.775691 4.013620 -162.019400 2.311739 5.070460 
2.768060 3.775289 4.007912 -161.349100 2.634383 5.013293 
2.762097 3.775135 4.000661 -160.624800 2.977556 4.897857 
2.756012 3.774290 3.993453 -160.081500 3.569562 4.686552 
2.749640 3.773943 3.984674 -159.754000 3.896140 4.635081 
2.745252 3.774646 3.976570 -159.600300 4.277249 4.706965 
2.741951 3.775011 3.973759 -159.597100 4.361885 4.869511 
2.739259 3.774849 3.971393 -159.753000 4.443342 4.707583 
2.736554 3.774726 3.970493 -159.599600 4.372539 4.667974 
2.734501 3.775296 3.968012 -159.209100 4.520239 4.688790 
2.731185 3.775425 3.964297 -158.655300 4.463430 4.967686 
2.728866 3.776045 3.960895 -158.252800 4.656027 4.763673 
2.725055 3.776367 3.957267 -157.705900 4.704654 4.883606 
2.721579 3.776781 3.954231 -157.327300 4.789382 4.728980 
2.715588 3.777219 3.952924 -157.013800 4.755479 4.639539 
2.710124 3.777684 3.953100 -156.697900 4.851606 4.490563 
2.705429 3.777771 3.952763 -156.347200 4.733429 4.361869 
2.702427 3.777372 3.952188 -155.963600 4.769852 3.833353 
2.700197 3.777863 3.952862 -155.607600 4.800444 3.972999 
2.697920 3.778657 3.953850 -155.280600 4.889652 3.754702 
2.694674 3.779067 3.956377 -155.022200 4.888477 3.576828 
2.690576 3.779024 3.959106 -154.974300 4.611048 3.604545 
2.686515 3.780091 3.962529 -154.865800 4.566201 3.378945 
2.683154 3.780076 3.967015 -154.740900 4.381118 3.047703 
2.680912 3.780748 3.970479 -154.820500 4.395319 2.556162 
2.676652 3.781209 3.975201 -154.719800 4.209678 2.562510 
2.672660 3.781852 3.979383 -154.651400 4.054145 2.696728 
2.669258 3.782071 3.983842 -154.537200 3.962447 2.573421 
2.664992 3.781661 3.989544 -154.523700 3.683425 2.993894 
2.661623 3.781259 3.994372 -154.604000 3.553576 3.284077 
2.657628 3.780837 3.998448 -154.551100 3.479764 3.831548 
2.653036 3.780636 4.002094 -154.618300 3.581142 4.419310 
2.645729 3.781186 4.004044 -154.653700 3.765695 5.117495 
2.638421 3.781737 4.005994 -154.686900 3.950665 5.815717 
2.625886 3.781223 4.010115 -154.849700 3.889481 5.568887 
2.609909 3.782210 4.018950 -155.235300 3.839899 5.028660 
2.593932 3.783198 4.027786 -155.620400 3.786694 4.488814 
2.581285 3.783923 4.036063 -156.190300 4.000869 4.266053 
2.569711 3.783704 4.039585 -156.741000 4.032658 4.789437 
2.561526 3.784197 4.042936 -157.628200 4.187424 4.919306 
2.551793 3.786258 4.048657 -158.319500 4.488114 5.033889 
2.537088 3.785945 4.058946 -159.397100 4.217355 4.930482 
2.520131 3.786412 4.068626 -160.296400 4.191858 4.529089 
2.505557 3.788089 4.076461 -161.105400 4.285633 4.596416 
2.491999 3.788251 4.081361 -161.693800 4.283820 4.738035 
2.475208 3.788041 4.090601 -162.539800 4.203818 4.620604 
2.455110 3.789238 4.102217 -163.282800 4.072689 4.403003 
2.436457 3.790534 4.110820 -163.904700 4.126430 4.471861 
2.419622 3.791944 4.116286 -164.376700 4.295453 4.591228 
2.399732 3.792143 4.124086 -164.892500 4.323827 4.413362 
2.381011 3.793615 4.132308 -165.311600 4.353412 4.429660 
2.364413 3.795177 4.138836 -165.744600 4.442658 4.678796 
2.345476 3.795591 4.148217 -166.212800 4.252528 4.629503 
2.329350 3.795873 4.156984 -166.498000 4.138645 4.650413 
2.312718 3.796436 4.163449 -166.616500 4.059628 4.653307 
2.294122 3.797682 4.167051 -166.311100 4.147837 4.918126 
2.276508 3.798121 4.169742 -165.946600 4.191854 4.628082 
2.258329 3.799261 4.174388 -165.507600 4.201718 4.410239 
